<?xml version="1.0" encoding="UTF-8" standalone="no"?>
<!-- Created with Inkscape (http://www.inkscape.org/) -->

<svg
   version="1.1"
   id="svg1"
   width="340.16"
   height="156.32001"
   viewBox="0 0 340.16 156.32001"
   sodipodi:docname="Kirk Logo SUB Final.eps"
   xmlns:inkscape="http://www.inkscape.org/namespaces/inkscape"
   xmlns:sodipodi="http://sodipodi.sourceforge.net/DTD/sodipodi-0.dtd"
   xmlns="http://www.w3.org/2000/svg"
   xmlns:svg="http://www.w3.org/2000/svg">
  <defs
     id="defs1" />
  <sodipodi:namedview
     id="namedview1"
     pagecolor="#ffffff"
     bordercolor="#000000"
     borderopacity="0.25"
     inkscape:showpageshadow="2"
     inkscape:pageopacity="0.0"
     inkscape:pagecheckerboard="0"
     inkscape:deskcolor="#d1d1d1">
    <inkscape:page
       x="0"
       y="0"
       inkscape:label="1"
       id="page1"
       width="340.16"
       height="156.32001"
       margin="0"
       bleed="0" />
  </sodipodi:namedview>
  <g
     id="g1"
     inkscape:groupmode="layer"
     inkscape:label="1">
    <g
       id="group-R5">
      <path
         id="path3"
         d="m 455.797,626.711 h -50.973 l -65.594,81.055 -0.445,-0.446 V 626.711 H 300.461 V 824.41 h 38.324 v -67.597 l 65.953,67.597 h 51.977 l -90.156,-90.281 89.238,-107.418"
         style="fill:#ffffff;fill-opacity:1;fill-rule:nonzero;stroke:none"
         transform="matrix(0.13333333,0,0,-0.13333333,0,156.32)" />
      <path
         id="path4"
         d="M 522.84,626.711 H 484.512 V 824.41 H 522.84 V 626.711"
         style="fill:#ffffff;fill-opacity:1;fill-rule:nonzero;stroke:none"
         transform="matrix(0.13333333,0,0,-0.13333333,0,156.32)" />
      <path
         id="path5"
         d="m 596.266,738.219 h 4 c 31.582,0 35.234,14.703 35.234,25.758 0,10.218 -3.539,23.808 -34.141,23.808 h -5.093 z m 98.179,-111.508 h -47.07 l -51.109,73.246 V 626.711 H 557.941 V 824.41 h 38.188 c 25.894,0 45.059,-5.101 56.957,-15.16 13.281,-11.34 20.012,-26.441 20.012,-44.914 0,-14.391 -4.211,-26.969 -12.516,-37.391 -6.793,-8.531 -15.437,-14.609 -25.777,-18.136 l 59.64,-82.098"
         style="fill:#ffffff;fill-opacity:1;fill-rule:nonzero;stroke:none"
         transform="matrix(0.13333333,0,0,-0.13333333,0,156.32)" />
      <path
         id="path6"
         d="m 863.164,626.711 h -50.969 l -65.597,81.055 -0.446,-0.446 V 626.711 H 707.828 V 824.41 h 38.324 v -67.597 l 65.953,67.597 h 51.977 l -90.156,-90.281 89.238,-107.418"
         style="fill:#ffffff;fill-opacity:1;fill-rule:nonzero;stroke:none"
         transform="matrix(0.13333333,0,0,-0.13333333,0,156.32)" />
      <path
         id="path7"
         d="m 268.809,529.027 c -3.856,0 -6.973,-1.125 -9.524,-3.441 -2.48,-2.137 -3.59,-4.606 -3.59,-7.852 0,-4.355 1.778,-8.644 5.438,-13.121 l 5.488,-6.625 c 3.164,2.418 5.856,4.582 8.043,6.461 2.856,2.446 4.203,3.981 4.832,4.832 1.844,2.282 2.668,4.871 2.668,8.094 0,3.566 -1.074,6.23 -3.383,8.367 -2.383,2.211 -5.648,3.285 -9.972,3.285 z m -10.047,-80.511 c -10,-7.036 -16.914,-12.735 -20.571,-16.957 -3.339,-3.93 -4.98,-7.918 -4.98,-12.164 0,-6.504 2.602,-12.368 7.961,-17.934 12.738,-12.258 28.117,-10.488 48.82,9.062 z m 1.539,-90.411 c -17.824,0 -33.196,5.801 -45.684,17.239 -12.383,11.672 -18.64,26.234 -18.64,43.32 0,20.375 9.808,37.465 29.152,50.797 l 10.262,7.012 c -10.75,12.726 -16.196,25.562 -16.196,38.226 0,13.992 4.688,25.594 13.93,34.481 9.383,8.843 21.5,13.312 36.051,13.312 14.109,0 26,-4.328 35.344,-12.855 9.472,-8.66 14.269,-19.715 14.269,-32.867 0,-9.118 -2.637,-17.493 -7.836,-24.883 -4.316,-6.239 -11.426,-13.293 -21.644,-21.469 l 26.843,-32.453 c 2.598,2.887 5.078,5.719 7.453,8.496 3.18,3.746 6.25,7.535 9.2,11.355 l 3.519,4.567 25.391,-26.059 -2.371,-3.39 c -2.348,-3.344 -5.449,-7.278 -9.239,-11.692 -3.003,-3.496 -6.472,-7.418 -10.402,-11.758 l 38.672,-47.73 h -48.113 l -16.746,20.543 c -16.914,-16.055 -34.793,-24.192 -53.215,-24.192"
         style="fill:#ffffff;fill-opacity:1;fill-rule:nonzero;stroke:none"
         transform="matrix(0.13333333,0,0,-0.13333333,0,156.32)" />
      <path
         id="path8"
         d="m 560.281,361.754 h -50.972 l -65.598,81.055 -0.441,-0.446 v -80.609 h -38.329 v 197.699 h 38.329 v -67.601 l 65.949,67.601 h 51.98 l -90.16,-90.281 89.242,-107.418"
         style="fill:#ffffff;fill-opacity:1;fill-rule:nonzero;stroke:none"
         transform="matrix(0.13333333,0,0,-0.13333333,0,156.32)" />
      <path
         id="path9"
         d="M 627.32,361.754 H 588.996 V 559.453 H 627.32 V 361.754"
         style="fill:#ffffff;fill-opacity:1;fill-rule:nonzero;stroke:none"
         transform="matrix(0.13333333,0,0,-0.13333333,0,156.32)" />
      <path
         id="path10"
         d="m 700.746,473.262 h 3.996 c 31.586,0 35.238,14.703 35.238,25.758 0,10.218 -3.539,23.808 -34.14,23.808 h -5.094 z m 98.18,-111.508 h -47.071 l -51.109,73.242 v -73.242 h -38.324 v 197.699 h 38.191 c 25.891,0 45.059,-5.101 56.957,-15.16 13.282,-11.332 20.004,-26.441 20.004,-44.91 0,-14.399 -4.207,-26.977 -12.508,-37.395 -6.796,-8.531 -15.445,-14.609 -25.781,-18.14 l 59.641,-82.094"
         style="fill:#ffffff;fill-opacity:1;fill-rule:nonzero;stroke:none"
         transform="matrix(0.13333333,0,0,-0.13333333,0,156.32)" />
      <path
         id="path11"
         d="m 967.648,361.754 h -50.972 l -65.59,81.055 -0.445,-0.446 v -80.609 h -38.325 v 197.699 h 38.325 v -67.601 l 65.953,67.601 h 51.976 l -90.156,-90.281 89.234,-107.418"
         style="fill:#ffffff;fill-opacity:1;fill-rule:nonzero;stroke:none"
         transform="matrix(0.13333333,0,0,-0.13333333,0,156.32)" />
      <path
         id="path12"
         d="M 174.727,183.711 H 989.824 V 998.805 H 174.727 Z m 845.103,-30 H 144.727 V 1028.8 H 1019.83 V 153.711"
         style="fill:#ffffff;fill-opacity:1;fill-rule:nonzero;stroke:none"
         transform="matrix(0.13333333,0,0,-0.13333333,0,156.32)" />
      <path
         id="path13"
         d="m 1202.28,864.922 h 8.8 c 21.63,0 32.44,8.32 32.44,24.969 0,16.101 -11.15,24.152 -33.46,24.152 h -7.78 z m 0,-21.828 v -63.375 h -23.55 v 156.054 h 26.69 c 13.07,0 22.94,-0.91 29.61,-2.73 6.74,-1.816 12.67,-5.254 17.79,-10.309 8.96,-8.757 13.44,-19.808 13.44,-33.152 0,-14.281 -4.78,-25.605 -14.35,-33.961 -9.57,-8.355 -22.47,-12.527 -38.71,-12.527 h -10.92"
         style="fill:#ffffff;fill-opacity:1;fill-rule:nonzero;stroke:none"
         transform="matrix(0.13333333,0,0,-0.13333333,0,156.32)" />
      <path
         id="path14"
         d="m 1286.17,878.16 h 22.75 v -8.789 c 4.17,4.375 7.88,7.379 11.11,8.992 3.3,1.688 7.21,2.528 11.73,2.528 6,0 12.26,-1.953 18.8,-5.86 l -10.41,-20.82 c -4.32,3.094 -8.53,4.648 -12.64,4.648 -12.4,0 -18.59,-9.367 -18.59,-28.101 v -51.039 h -22.75 v 98.441"
         style="fill:#ffffff;fill-opacity:1;fill-rule:nonzero;stroke:none"
         transform="matrix(0.13333333,0,0,-0.13333333,0,156.32)" />
      <path
         id="path15"
         d="m 1380.37,829.242 c 0,-9.836 2.63,-17.621 7.88,-23.347 5.39,-5.797 12.5,-8.692 21.33,-8.692 8.9,0 16.01,2.86 21.33,8.59 5.32,5.727 7.98,13.379 7.98,22.941 0,9.575 -2.66,17.219 -7.98,22.946 -5.39,5.797 -12.5,8.691 -21.33,8.691 -8.69,0 -15.73,-2.894 -21.12,-8.691 -5.39,-5.793 -8.09,-13.278 -8.09,-22.438 z m -23.25,0.406 c 0,14.215 5.09,26.309 15.26,36.286 10.18,9.968 22.58,14.957 37.2,14.957 14.69,0 27.15,-5.02 37.39,-15.059 10.11,-10.039 15.17,-22.375 15.17,-36.992 0,-14.758 -5.09,-27.125 -15.26,-37.098 -10.25,-9.898 -22.82,-14.855 -37.71,-14.855 -14.75,0 -27.12,5.051 -37.09,15.16 -9.97,9.969 -14.96,22.504 -14.96,37.601"
         style="fill:#ffffff;fill-opacity:1;fill-rule:nonzero;stroke:none"
         transform="matrix(0.13333333,0,0,-0.13333333,0,156.32)" />
      <path
         id="path16"
         d="m 1509.74,856.934 v -77.215 h -22.84 v 77.215 h -8.09 v 21.226 h 8.09 v 38.004 c 0,12.395 2.15,21.156 6.47,26.277 5.93,7.145 14.55,10.719 25.87,10.719 4.04,0 9.13,-1.183 15.26,-3.539 v -23.25 l -2.32,1.219 c -4.92,2.488 -8.97,3.734 -12.13,3.734 -4.04,0 -6.77,-1.449 -8.18,-4.347 -1.42,-2.825 -2.13,-8.286 -2.13,-16.372 V 878.16 h 24.76 v -21.226 h -24.76"
         style="fill:#ffffff;fill-opacity:1;fill-rule:nonzero;stroke:none"
         transform="matrix(0.13333333,0,0,-0.13333333,0,156.32)" />
      <path
         id="path17"
         d="m 1617.08,842.18 c -3.16,12.129 -10.81,18.191 -22.94,18.191 -2.76,0 -5.36,-0.418 -7.78,-1.258 -2.42,-0.847 -4.63,-2.062 -6.62,-3.644 -1.99,-1.582 -3.69,-3.485 -5.11,-5.707 -1.42,-2.227 -2.49,-4.75 -3.23,-7.582 z m 23.35,-18.594 h -70.55 c 0.61,-8.086 3.24,-14.523 7.89,-19.309 4.64,-4.714 10.61,-7.074 17.89,-7.074 5.66,0 10.34,1.348 14.05,4.043 3.63,2.695 7.78,7.68 12.43,14.961 l 19.2,-10.719 c -2.96,-5.054 -6.09,-9.379 -9.4,-12.988 -3.3,-3.602 -6.84,-6.566 -10.61,-8.891 -3.77,-2.324 -7.85,-4.023 -12.23,-5.101 -4.38,-1.078 -9.13,-1.621 -14.25,-1.621 -14.69,0 -26.49,4.715 -35.38,14.148 -8.89,9.504 -13.35,22.102 -13.35,37.805 0,15.566 4.32,28.164 12.94,37.801 8.7,9.5 20.23,14.25 34.57,14.25 14.5,0 25.95,-4.618 34.37,-13.848 8.36,-9.16 12.54,-21.867 12.54,-38.102 l -0.11,-5.355"
         style="fill:#ffffff;fill-opacity:1;fill-rule:nonzero;stroke:none"
         transform="matrix(0.13333333,0,0,-0.13333333,0,156.32)" />
      <path
         id="path18"
         d="m 1722.5,861.383 -18.8,-10.004 c -2.96,6.062 -6.63,9.094 -11.01,9.094 -2.09,0 -3.88,-0.692 -5.35,-2.071 -1.49,-1.379 -2.23,-3.152 -2.23,-5.304 0,-3.778 4.37,-7.516 13.13,-11.223 12.06,-5.191 20.19,-9.969 24.37,-14.352 4.17,-4.378 6.26,-10.277 6.26,-17.687 0,-9.496 -3.5,-17.453 -10.51,-23.856 -6.81,-6.062 -15.03,-9.093 -24.66,-9.093 -16.51,0 -28.2,8.051 -35.08,24.16 l 19.41,8.992 c 2.69,-4.715 4.75,-7.715 6.17,-8.992 2.76,-2.567 6.07,-3.844 9.9,-3.844 7.69,0 11.53,3.5 11.53,10.512 0,4.043 -2.97,7.812 -8.9,11.32 -2.29,1.149 -4.58,2.254 -6.88,3.332 -2.28,1.082 -4.6,2.196 -6.97,3.336 -6.6,3.238 -11.25,6.473 -13.94,9.703 -3.44,4.11 -5.16,9.403 -5.16,15.867 0,8.563 2.93,15.637 8.8,21.227 6,5.594 13.27,8.391 21.83,8.391 12.59,0 21.96,-6.504 28.09,-19.508"
         style="fill:#ffffff;fill-opacity:1;fill-rule:nonzero;stroke:none"
         transform="matrix(0.13333333,0,0,-0.13333333,0,156.32)" />
      <path
         id="path19"
         d="m 1806.5,861.383 -18.8,-10.004 c -2.97,6.062 -6.64,9.094 -11.02,9.094 -2.09,0 -3.88,-0.692 -5.36,-2.071 -1.48,-1.379 -2.23,-3.152 -2.23,-5.304 0,-3.778 4.39,-7.516 13.15,-11.223 12.06,-5.191 20.17,-9.969 24.35,-14.352 4.18,-4.378 6.27,-10.277 6.27,-17.687 0,-9.496 -3.5,-17.453 -10.51,-23.856 -6.8,-6.062 -15.02,-9.093 -24.66,-9.093 -16.51,0 -28.2,8.051 -35.07,24.16 l 19.4,8.992 c 2.7,-4.715 4.75,-7.715 6.16,-8.992 2.77,-2.567 6.07,-3.844 9.92,-3.844 7.67,0 11.51,3.5 11.51,10.512 0,4.043 -2.96,7.812 -8.89,11.32 -2.29,1.149 -4.59,2.254 -6.87,3.332 -2.3,1.082 -4.62,2.196 -6.97,3.336 -6.61,3.238 -11.26,6.473 -13.95,9.703 -3.44,4.11 -5.16,9.403 -5.16,15.867 0,8.563 2.93,15.637 8.79,21.227 6,5.594 13.28,8.391 21.84,8.391 12.6,0 21.96,-6.504 28.1,-19.508"
         style="fill:#ffffff;fill-opacity:1;fill-rule:nonzero;stroke:none"
         transform="matrix(0.13333333,0,0,-0.13333333,0,156.32)" />
      <path
         id="path20"
         d="m 1856.03,878.16 v -98.441 h -22.75 v 98.441 z m -26.18,40.938 c 0,3.972 1.44,7.414 4.34,10.308 2.9,2.895 6.37,4.344 10.41,4.344 4.11,0 7.62,-1.449 10.51,-4.344 2.9,-2.828 4.35,-6.301 4.35,-10.41 0,-4.113 -1.45,-7.617 -4.35,-10.516 -2.82,-2.894 -6.3,-4.343 -10.41,-4.343 -4.1,0 -7.61,1.449 -10.51,4.343 -2.9,2.899 -4.34,6.438 -4.34,10.618"
         style="fill:#ffffff;fill-opacity:1;fill-rule:nonzero;stroke:none"
         transform="matrix(0.13333333,0,0,-0.13333333,0,156.32)" />
      <path
         id="path21"
         d="m 1903.42,829.242 c 0,-9.836 2.63,-17.621 7.89,-23.347 5.39,-5.797 12.49,-8.692 21.32,-8.692 8.89,0 16,2.86 21.33,8.59 5.32,5.727 7.98,13.379 7.98,22.941 0,9.575 -2.66,17.219 -7.98,22.946 -5.39,5.797 -12.5,8.691 -21.33,8.691 -8.69,0 -15.73,-2.894 -21.12,-8.691 -5.4,-5.793 -8.09,-13.278 -8.09,-22.438 z m -23.24,0.406 c 0,14.215 5.09,26.309 15.26,36.286 10.17,9.968 22.57,14.957 37.19,14.957 14.69,0 27.16,-5.02 37.4,-15.059 10.11,-10.039 15.16,-22.375 15.16,-36.992 0,-14.758 -5.09,-27.125 -15.27,-37.098 -10.23,-9.898 -22.8,-14.855 -37.69,-14.855 -14.76,0 -27.12,5.051 -37.09,15.16 -9.98,9.969 -14.96,22.504 -14.96,37.601"
         style="fill:#ffffff;fill-opacity:1;fill-rule:nonzero;stroke:none"
         transform="matrix(0.13333333,0,0,-0.13333333,0,156.32)" />
      <path
         id="path22"
         d="m 2009.25,878.16 h 22.84 v -9.097 c 7.95,7.886 16.92,11.828 26.89,11.828 11.45,0 20.38,-3.606 26.78,-10.817 5.52,-6.129 8.28,-16.136 8.28,-30.015 v -60.34 h -22.84 v 54.984 c 0,9.703 -1.35,16.406 -4.04,20.113 -2.63,3.77 -7.41,5.657 -14.35,5.657 -7.54,0 -12.91,-2.493 -16.07,-7.481 -3.1,-4.914 -4.65,-13.508 -4.65,-25.769 v -47.504 h -22.84 v 98.441"
         style="fill:#ffffff;fill-opacity:1;fill-rule:nonzero;stroke:none"
         transform="matrix(0.13333333,0,0,-0.13333333,0,156.32)" />
      <path
         id="path23"
         d="m 2141.35,829.242 c 0,-9.433 2.53,-17.117 7.58,-23.047 5.18,-5.996 11.73,-8.992 19.61,-8.992 8.41,0 15.22,2.895 20.42,8.692 5.18,5.996 7.77,13.613 7.77,22.839 0,9.235 -2.59,16.848 -7.77,22.844 -5.2,5.863 -11.94,8.793 -20.22,8.793 -7.82,0 -14.35,-2.965 -19.61,-8.891 -5.19,-6 -7.78,-13.414 -7.78,-22.238 z m 53.97,48.918 h 22.85 v -98.441 h -22.85 v 10.304 c -9.37,-8.757 -19.44,-13.136 -30.22,-13.136 -13.61,0 -24.86,4.922 -33.76,14.758 -8.83,10.039 -13.24,22.57 -13.24,37.597 0,14.758 4.41,27.055 13.24,36.891 8.83,9.84 19.88,14.758 33.15,14.758 11.46,0 21.73,-4.719 30.83,-14.153 v 11.422"
         style="fill:#ffffff;fill-opacity:1;fill-rule:nonzero;stroke:none"
         transform="matrix(0.13333333,0,0,-0.13333333,0,156.32)" />
      <path
         id="path24"
         d="M 2269.61,950.43 V 779.719 h -22.74 V 950.43 h 22.74"
         style="fill:#ffffff;fill-opacity:1;fill-rule:nonzero;stroke:none"
         transform="matrix(0.13333333,0,0,-0.13333333,0,156.32)" />
      <path
         id="path25"
         d="m 1173.28,531.324 32.84,167.778 53.57,-121.286 55.49,121.286 29.51,-167.778 h -24.15 l -15.06,94.199 -46.19,-101.378 -44.88,101.48 -16.78,-94.301 h -24.35"
         style="fill:#ffffff;fill-opacity:1;fill-rule:nonzero;stroke:none"
         transform="matrix(0.13333333,0,0,-0.13333333,0,156.32)" />
      <path
         id="path26"
         d="m 1391.99,580.852 c 0,-9.434 2.53,-17.122 7.59,-23.047 5.19,-5.996 11.72,-8.996 19.6,-8.996 8.43,0 15.24,2.894 20.42,8.691 5.19,5.996 7.78,13.613 7.78,22.844 0,9.23 -2.59,16.844 -7.78,22.84 -5.18,5.867 -11.92,8.793 -20.21,8.793 -7.82,0 -14.36,-2.961 -19.61,-8.891 -5.19,-6 -7.79,-13.41 -7.79,-22.234 z m 53.98,48.914 h 22.84 v -98.442 h -22.84 v 10.309 c -9.37,-8.762 -19.45,-13.141 -30.23,-13.141 -13.6,0 -24.86,4.922 -33.75,14.762 -8.82,10.039 -13.24,22.566 -13.24,37.598 0,14.753 4.42,27.05 13.24,36.886 8.82,9.84 19.88,14.758 33.15,14.758 11.45,0 21.74,-4.719 30.83,-14.148 v 11.418"
         style="fill:#ffffff;fill-opacity:1;fill-rule:nonzero;stroke:none"
         transform="matrix(0.13333333,0,0,-0.13333333,0,156.32)" />
      <path
         id="path27"
         d="m 1497.51,629.766 h 22.84 v -9.094 c 7.96,7.883 16.92,11.824 26.9,11.824 11.44,0 20.38,-3.605 26.77,-10.816 5.53,-6.125 8.3,-16.137 8.3,-30.016 v -60.34 h -22.85 v 54.985 c 0,9.703 -1.34,16.406 -4.04,20.113 -2.63,3.769 -7.41,5.66 -14.35,5.66 -7.55,0 -12.9,-2.496 -16.07,-7.48 -3.1,-4.918 -4.66,-13.512 -4.66,-25.774 v -47.504 h -22.84 v 98.442"
         style="fill:#ffffff;fill-opacity:1;fill-rule:nonzero;stroke:none"
         transform="matrix(0.13333333,0,0,-0.13333333,0,156.32)" />
      <path
         id="path28"
         d="m 1629.62,580.852 c 0,-9.434 2.53,-17.122 7.58,-23.047 5.18,-5.996 11.73,-8.996 19.61,-8.996 8.42,0 15.22,2.894 20.42,8.691 5.18,5.996 7.77,13.613 7.77,22.844 0,9.23 -2.59,16.844 -7.77,22.84 -5.2,5.867 -11.94,8.793 -20.22,8.793 -7.82,0 -14.35,-2.961 -19.61,-8.891 -5.19,-6 -7.78,-13.41 -7.78,-22.234 z m 53.98,48.914 h 22.84 v -98.442 h -22.84 v 10.309 c -9.38,-8.762 -19.45,-13.141 -30.23,-13.141 -13.61,0 -24.86,4.922 -33.76,14.762 -8.83,10.039 -13.24,22.566 -13.24,37.598 0,14.753 4.41,27.05 13.24,36.886 8.83,9.84 19.88,14.758 33.16,14.758 11.45,0 21.72,-4.719 30.83,-14.148 v 11.418"
         style="fill:#ffffff;fill-opacity:1;fill-rule:nonzero;stroke:none"
         transform="matrix(0.13333333,0,0,-0.13333333,0,156.32)" />
      <path
         id="path29"
         d="m 1808.52,580.344 c 0,9.57 -2.56,17.215 -7.69,22.941 -5.18,5.867 -11.82,8.797 -19.91,8.797 -8.62,0 -15.43,-3.203 -20.41,-9.602 -4.52,-5.73 -6.78,-13.136 -6.78,-22.234 0,-8.965 2.26,-16.308 6.78,-22.035 4.91,-6.266 11.72,-9.402 20.41,-9.402 8.69,0 15.57,3.168 20.62,9.504 4.65,5.726 6.98,13.07 6.98,22.031 z m 21.82,-46.696 c 0,-4.648 -0.14,-8.742 -0.45,-12.281 -0.3,-3.535 -0.72,-6.652 -1.27,-9.351 -1.61,-7.407 -4.78,-13.778 -9.49,-19.098 -8.89,-10.242 -21.13,-15.363 -36.69,-15.363 -13.14,0 -23.95,3.535 -32.45,10.609 -8.76,7.281 -13.81,17.356 -15.15,30.223 h 22.84 c 0.88,-4.852 2.32,-8.59 4.34,-11.219 4.72,-6.133 11.59,-9.199 20.62,-9.199 16.64,0 24.97,10.211 24.97,30.625 v 13.746 c -9.03,-9.235 -19.44,-13.848 -31.23,-13.848 -13.41,0 -24.4,4.856 -32.95,14.555 -8.63,9.84 -12.94,22.137 -12.94,36.894 0,14.352 4,26.543 12.02,36.586 8.63,10.649 20.02,15.969 34.17,15.969 12.39,0 22.71,-4.613 30.93,-13.848 v 11.118 h 22.73 v -96.118"
         style="fill:#ffffff;fill-opacity:1;fill-rule:nonzero;stroke:none"
         transform="matrix(0.13333333,0,0,-0.13333333,0,156.32)" />
      <path
         id="path30"
         d="m 1925.35,593.785 c -3.16,12.129 -10.81,18.192 -22.94,18.192 -2.76,0 -5.36,-0.418 -7.78,-1.258 -2.42,-0.844 -4.63,-2.063 -6.62,-3.645 -1.98,-1.582 -3.69,-3.484 -5.11,-5.707 -1.4,-2.226 -2.49,-4.75 -3.23,-7.582 z m 23.35,-18.594 h -70.54 c 0.6,-8.086 3.23,-14.519 7.88,-19.304 4.64,-4.719 10.61,-7.078 17.89,-7.078 5.66,0 10.34,1.347 14.05,4.043 3.63,2.695 7.78,7.679 12.43,14.961 l 19.2,-10.715 c -2.96,-5.055 -6.09,-9.383 -9.39,-12.993 -3.3,-3.601 -6.85,-6.566 -10.62,-8.89 -3.77,-2.324 -7.85,-4.024 -12.23,-5.102 -4.38,-1.078 -9.13,-1.621 -14.25,-1.621 -14.69,0 -26.48,4.719 -35.37,14.149 -8.9,9.504 -13.34,22.101 -13.34,37.804 0,15.567 4.3,28.164 12.94,37.801 8.69,9.5 20.21,14.25 34.56,14.25 14.49,0 25.94,-4.613 34.36,-13.848 8.36,-9.16 12.54,-21.867 12.54,-38.101 l -0.11,-5.356"
         style="fill:#ffffff;fill-opacity:1;fill-rule:nonzero;stroke:none"
         transform="matrix(0.13333333,0,0,-0.13333333,0,156.32)" />
      <path
         id="path31"
         d="m 1973.57,629.766 h 22.74 v -9.094 c 4.38,4.582 8.12,7.683 11.22,9.301 3.3,1.683 7.44,2.523 12.43,2.523 11.12,0 19.91,-4.848 26.38,-14.551 7.15,9.703 16.82,14.551 29.01,14.551 22.17,0 33.25,-13.441 33.25,-40.328 v -60.844 h -22.84 v 54.68 c 0,9.43 -1.15,16.105 -3.43,20.012 -2.37,3.976 -6.23,5.961 -11.63,5.961 -6.27,0 -10.84,-2.356 -13.7,-7.075 -2.86,-4.714 -4.29,-12.293 -4.29,-22.738 v -50.84 h -22.85 v 54.375 c 0,17.52 -5.04,26.278 -15.15,26.278 -6.41,0 -11.08,-2.391 -14.01,-7.172 -2.93,-4.785 -4.39,-12.332 -4.39,-22.641 v -50.84 h -22.74 v 98.442"
         style="fill:#ffffff;fill-opacity:1;fill-rule:nonzero;stroke:none"
         transform="matrix(0.13333333,0,0,-0.13333333,0,156.32)" />
      <path
         id="path32"
         d="m 2203.6,593.785 c -3.16,12.129 -10.81,18.192 -22.93,18.192 -2.77,0 -5.37,-0.418 -7.79,-1.258 -2.42,-0.844 -4.63,-2.063 -6.62,-3.645 -1.98,-1.582 -3.69,-3.484 -5.11,-5.707 -1.4,-2.226 -2.49,-4.75 -3.23,-7.582 z m 23.35,-18.594 h -70.54 c 0.6,-8.086 3.23,-14.519 7.88,-19.304 4.65,-4.719 10.61,-7.078 17.89,-7.078 5.66,0 10.34,1.347 14.05,4.043 3.63,2.695 7.79,7.679 12.43,14.961 l 19.2,-10.715 c -2.96,-5.055 -6.09,-9.383 -9.39,-12.993 -3.3,-3.601 -6.85,-6.566 -10.62,-8.89 -3.77,-2.324 -7.85,-4.024 -12.22,-5.102 -4.39,-1.078 -9.13,-1.621 -14.26,-1.621 -14.69,0 -26.48,4.719 -35.37,14.149 -8.9,9.504 -13.34,22.101 -13.34,37.804 0,15.567 4.3,28.164 12.94,37.801 8.69,9.5 20.21,14.25 34.56,14.25 14.49,0 25.94,-4.613 34.36,-13.848 8.36,-9.16 12.54,-21.867 12.54,-38.101 l -0.11,-5.356"
         style="fill:#ffffff;fill-opacity:1;fill-rule:nonzero;stroke:none"
         transform="matrix(0.13333333,0,0,-0.13333333,0,156.32)" />
      <path
         id="path33"
         d="m 2251.82,629.766 h 22.84 v -9.094 c 7.96,7.883 16.91,11.824 26.89,11.824 11.45,0 20.38,-3.605 26.78,-10.816 5.53,-6.125 8.29,-16.137 8.29,-30.016 v -60.34 h -22.84 v 54.985 c 0,9.703 -1.35,16.406 -4.04,20.113 -2.63,3.769 -7.41,5.66 -14.36,5.66 -7.55,0 -12.9,-2.496 -16.06,-7.48 -3.11,-4.918 -4.66,-13.512 -4.66,-25.774 v -47.504 h -22.84 v 98.442"
         style="fill:#ffffff;fill-opacity:1;fill-rule:nonzero;stroke:none"
         transform="matrix(0.13333333,0,0,-0.13333333,0,156.32)" />
      <path
         id="path34"
         d="m 2388.77,608.539 v -77.215 h -22.74 v 77.215 h -9.7 v 21.227 h 9.7 v 36.086 h 22.74 v -36.086 h 17.69 v -21.227 h -17.69"
         style="fill:#ffffff;fill-opacity:1;fill-rule:nonzero;stroke:none"
         transform="matrix(0.13333333,0,0,-0.13333333,0,156.32)" />
      <path
         id="path35"
         d="m 1294.05,430.594 v -27.899 c -13.6,11.387 -27.69,17.082 -42.24,17.082 -16.04,0 -29.55,-5.761 -40.53,-17.281 -11.05,-11.461 -16.58,-25.473 -16.58,-42.047 0,-16.375 5.53,-30.187 16.58,-41.437 11.05,-11.258 24.59,-16.883 40.63,-16.883 8.29,0 15.33,1.348 21.12,4.043 3.24,1.348 6.59,3.164 10.06,5.461 3.46,2.289 7.13,5.051 10.96,8.285 v -28.402 c -13.47,-7.614 -27.62,-11.422 -42.44,-11.422 -22.31,0 -41.34,7.785 -57.11,23.347 -15.7,15.7 -23.55,34.637 -23.55,56.805 0,19.875 6.57,37.598 19.71,53.164 16.17,19.067 37.1,28.602 62.76,28.602 14.02,0 27.56,-3.809 40.63,-11.418"
         style="fill:#ffffff;fill-opacity:1;fill-rule:nonzero;stroke:none"
         transform="matrix(0.13333333,0,0,-0.13333333,0,156.32)" />
      <path
         id="path36"
         d="m 1338.02,332.453 c 0,-9.84 2.63,-17.625 7.89,-23.351 5.39,-5.793 12.49,-8.692 21.32,-8.692 8.89,0 16,2.863 21.33,8.59 5.32,5.727 7.98,13.379 7.98,22.945 0,9.571 -2.66,17.215 -7.98,22.946 -5.39,5.793 -12.5,8.687 -21.33,8.687 -8.69,0 -15.73,-2.894 -21.13,-8.687 -5.39,-5.797 -8.08,-13.278 -8.08,-22.438 z m -23.24,0.402 c 0,14.215 5.08,26.313 15.26,36.286 10.17,9.972 22.57,14.957 37.19,14.957 14.69,0 27.16,-5.02 37.4,-15.059 10.11,-10.039 15.16,-22.371 15.16,-36.992 0,-14.754 -5.09,-27.125 -15.27,-37.094 -10.23,-9.902 -22.8,-14.859 -37.69,-14.859 -14.76,0 -27.12,5.054 -37.09,15.16 -9.98,9.973 -14.96,22.508 -14.96,37.601"
         style="fill:#ffffff;fill-opacity:1;fill-rule:nonzero;stroke:none"
         transform="matrix(0.13333333,0,0,-0.13333333,0,156.32)" />
      <path
         id="path37"
         d="m 1443.84,381.367 h 22.84 v -9.097 c 7.96,7.886 16.92,11.828 26.9,11.828 11.44,0 20.38,-3.606 26.77,-10.817 5.53,-6.129 8.29,-16.136 8.29,-30.015 v -60.34 h -22.84 v 54.984 c 0,9.703 -1.35,16.406 -4.04,20.113 -2.63,3.77 -7.41,5.661 -14.36,5.661 -7.55,0 -12.9,-2.496 -16.06,-7.481 -3.11,-4.918 -4.66,-13.512 -4.66,-25.773 v -47.504 h -22.84 v 98.441"
         style="fill:#ffffff;fill-opacity:1;fill-rule:nonzero;stroke:none"
         transform="matrix(0.13333333,0,0,-0.13333333,0,156.32)" />
      <path
         id="path38"
         d="m 1614.56,364.59 -18.8,-10.004 c -2.97,6.062 -6.64,9.098 -11.01,9.098 -2.09,0 -3.88,-0.696 -5.36,-2.071 -1.49,-1.383 -2.23,-3.156 -2.23,-5.308 0,-3.774 4.38,-7.516 13.14,-11.219 12.06,-5.191 20.18,-9.973 24.36,-14.352 4.18,-4.382 6.27,-10.281 6.27,-17.691 0,-9.496 -3.51,-17.449 -10.51,-23.852 -6.81,-6.066 -15.03,-9.097 -24.67,-9.097 -16.51,0 -28.2,8.051 -35.07,24.16 l 19.4,8.992 c 2.69,-4.715 4.76,-7.715 6.17,-8.992 2.77,-2.563 6.07,-3.844 9.91,-3.844 7.68,0 11.52,3.5 11.52,10.516 0,4.043 -2.96,7.808 -8.89,11.316 -2.29,1.149 -4.59,2.254 -6.87,3.336 -2.3,1.078 -4.62,2.192 -6.99,3.332 -6.6,3.238 -11.25,6.473 -13.94,9.703 -3.44,4.114 -5.16,9.407 -5.16,15.871 0,8.559 2.93,15.633 8.8,21.227 6,5.59 13.27,8.387 21.84,8.387 12.59,0 21.96,-6.504 28.09,-19.508"
         style="fill:#ffffff;fill-opacity:1;fill-rule:nonzero;stroke:none"
         transform="matrix(0.13333333,0,0,-0.13333333,0,156.32)" />
      <path
         id="path39"
         d="m 1664.08,381.367 v -56.5 c 0,-16.301 6.44,-24.457 19.31,-24.457 12.87,0 19.31,8.156 19.31,24.457 v 56.5 h 22.73 v -57 c 0,-7.887 -0.98,-14.691 -2.93,-20.418 -1.88,-5.121 -5.15,-9.738 -9.8,-13.847 -7.68,-6.672 -17.45,-10.008 -29.31,-10.008 -11.8,0 -21.53,3.336 -29.21,10.008 -4.72,4.109 -8.06,8.726 -10.01,13.847 -1.88,4.582 -2.83,11.383 -2.83,20.418 v 57 h 22.74"
         style="fill:#ffffff;fill-opacity:1;fill-rule:nonzero;stroke:none"
         transform="matrix(0.13333333,0,0,-0.13333333,0,156.32)" />
      <path
         id="path40"
         d="M 1776.89,453.641 V 282.926 h -22.75 v 170.715 h 22.75"
         style="fill:#ffffff;fill-opacity:1;fill-rule:nonzero;stroke:none"
         transform="matrix(0.13333333,0,0,-0.13333333,0,156.32)" />
      <path
         id="path41"
         d="m 1829.14,360.141 v -77.215 h -22.74 v 77.215 h -9.71 v 21.226 h 9.71 v 36.086 h 22.74 v -36.086 h 17.69 v -21.226 h -17.69"
         style="fill:#ffffff;fill-opacity:1;fill-rule:nonzero;stroke:none"
         transform="matrix(0.13333333,0,0,-0.13333333,0,156.32)" />
      <path
         id="path42"
         d="m 1882.71,332.453 c 0,-9.433 2.53,-17.121 7.57,-23.047 5.19,-5.996 11.73,-8.996 19.61,-8.996 8.42,0 15.23,2.899 20.42,8.692 5.19,5.996 7.78,13.613 7.78,22.843 0,9.235 -2.59,16.844 -7.78,22.84 -5.19,5.863 -11.93,8.793 -20.21,8.793 -7.82,0 -14.36,-2.961 -19.61,-8.89 -5.2,-6 -7.78,-13.415 -7.78,-22.235 z m 53.97,48.914 h 22.84 v -98.441 h -22.84 v 10.308 c -9.37,-8.761 -19.44,-13.14 -30.22,-13.14 -13.62,0 -24.87,4.922 -33.76,14.761 -8.83,10.04 -13.25,22.567 -13.25,37.598 0,14.754 4.42,27.051 13.25,36.891 8.82,9.836 19.88,14.754 33.15,14.754 11.46,0 21.73,-4.715 30.83,-14.153 v 11.422"
         style="fill:#ffffff;fill-opacity:1;fill-rule:nonzero;stroke:none"
         transform="matrix(0.13333333,0,0,-0.13333333,0,156.32)" />
      <path
         id="path43"
         d="m 1988.22,381.367 h 22.85 v -9.097 c 7.95,7.886 16.91,11.828 26.88,11.828 11.46,0 20.38,-3.606 26.79,-10.817 5.52,-6.129 8.28,-16.136 8.28,-30.015 v -60.34 h -22.84 v 54.984 c 0,9.703 -1.35,16.406 -4.05,20.113 -2.62,3.77 -7.41,5.661 -14.34,5.661 -7.55,0 -12.91,-2.496 -16.08,-7.481 -3.09,-4.918 -4.64,-13.512 -4.64,-25.773 v -47.504 h -22.85 v 98.441"
         style="fill:#ffffff;fill-opacity:1;fill-rule:nonzero;stroke:none"
         transform="matrix(0.13333333,0,0,-0.13333333,0,156.32)" />
      <path
         id="path44"
         d="m 2178.34,377.125 v -30.219 c -5.18,6.332 -9.83,10.68 -13.94,13.035 -4.05,2.426 -8.8,3.637 -14.26,3.637 -8.56,0 -15.67,-2.996 -21.32,-8.992 -5.66,-5.996 -8.5,-13.512 -8.5,-22.539 0,-9.234 2.74,-16.813 8.2,-22.738 5.51,-5.934 12.56,-8.899 21.12,-8.899 5.46,0 10.27,1.18 14.45,3.539 4.05,2.285 8.79,6.735 14.25,13.344 V 287.27 c -9.23,-4.786 -18.47,-7.176 -27.69,-7.176 -15.23,0 -27.96,4.922 -38.21,14.761 -10.24,9.903 -15.36,22.196 -15.36,36.887 0,14.692 5.19,27.086 15.57,37.196 10.37,10.105 23.1,15.16 38.2,15.16 9.71,0 18.87,-2.325 27.49,-6.973"
         style="fill:#ffffff;fill-opacity:1;fill-rule:nonzero;stroke:none"
         transform="matrix(0.13333333,0,0,-0.13333333,0,156.32)" />
      <path
         id="path45"
         d="m 2231.4,301.223 -44.27,80.144 h 26.38 l 30.12,-56.597 28.1,56.597 h 25.67 l -78.43,-152.012 h -25.98 l 38.41,71.868"
         style="fill:#ffffff;fill-opacity:1;fill-rule:nonzero;stroke:none"
         transform="matrix(0.13333333,0,0,-0.13333333,0,156.32)" />
    </g>
  </g>
</svg>
